<svg xmlns="http://www.w3.org/2000/svg" version="1.1" xmlns:xlink="http://www.w3.org/1999/xlink" xmlns:svgjs="http://svgjs.dev/svgjs" width="1000" height="449" viewBox="0 0 1000 449"><g transform="matrix(1,0,0,1,-0.6060412726176878,0.35715237111674014)"><svg viewBox="0 0 396 178" data-background-color="#ffffff" preserveAspectRatio="xMidYMid meet" height="449" width="1000" xmlns="http://www.w3.org/2000/svg" xmlns:xlink="http://www.w3.org/1999/xlink"><g id="tight-bounds" transform="matrix(1,0,0,1,0.23999234395660096,-0.14158557396012839)"><svg viewBox="0 0 395.52 178.28317381907993" height="178.28317381907993" width="395.52"><g><svg viewBox="0 0 395.52 178.28317381907993" height="178.28317381907993" width="395.52"><g><svg viewBox="0 0 395.52 178.28317381907993" height="178.28317381907993" width="395.52"><g id="textblocktransform"><svg viewBox="0 0 395.52 178.28317381907993" height="178.28317381907993" width="395.52" id="textblock"><g><svg viewBox="0 0 395.52 178.28317381907993" height="178.28317381907993" width="395.52"><g transform="matrix(1,0,0,1,0,0)"><svg width="395.52" viewBox="-7.230000019073486 -51.369998931884766 158.14999389648438 71.29000091552734" height="178.28317381907993" data-palette-color="#ff0000"><path d="M39.89 11.62L39.89 11.62Q39.75 12.45 39.23 12.82 38.72 13.18 38.28 13.87L38.28 13.87 38.09 13.87Q37.6 13.87 37.13 13.96 36.67 14.06 36.18 14.21L36.18 14.21Q35.94 14.11 35.6 14.06 35.25 14.01 35.16 13.72L35.16 13.72Q34.77 13.92 34.08 13.92L34.08 13.92Q32.96 13.92 31.96 13.28 30.96 12.65 29.88 12.3L29.88 12.3Q29.59 11.72 29.17 11.25 28.76 10.79 28.34 10.35 27.93 9.91 27.54 9.42 27.15 8.94 26.9 8.25L26.9 8.25Q26.81 7.96 26.66 7.91 26.51 7.86 26.22 7.91L26.22 7.91Q26.27 7.37 26.1 6.98 25.93 6.59 25.34 6.49L25.34 6.49Q25.34 5.86 25.15 5.42 24.95 4.98 24.68 4.66 24.41 4.35 24.1 4 23.78 3.66 23.58 3.17L23.58 3.17Q23.14 3.08 22.73 3.05 22.31 3.03 21.83 3.03L21.83 3.03Q19.48 3.03 17.29 3.91L17.29 3.91Q17.04 4 16.77 4.15 16.5 4.3 16.26 4.39L16.26 4.39Q16.16 4.39 16.09 4.42 16.02 4.44 15.92 4.44L15.92 4.44Q15.58 4.44 15.28 4.32 14.99 4.2 14.65 4.2L14.65 4.2Q14.5 4.2 14.33 4.27 14.16 4.35 14.01 4.39L14.01 4.39Q13.28 4.64 12.65 4.69L12.65 4.69Q10.64 5.08 8.42 5.27 6.2 5.47 4.35 6.3L4.35 6.3Q3.96 6.49 3.86 6.91 3.76 7.32 3.81 7.71L3.81 7.71Q3.27 8.11 3 8.74 2.73 9.38 2.51 10.08 2.29 10.79 2.05 11.47 1.81 12.16 1.37 12.65L1.37 12.65Q1.51 12.94 1.51 13.28L1.51 13.28Q1.51 14.01 1.03 14.75 0.54 15.48 0.29 16.16L0.29 16.16Q0.05 16.85-0.1 17.5-0.24 18.16-0.54 18.7-0.83 19.24-1.34 19.58-1.86 19.92-2.78 19.92L-2.78 19.92Q-3.66 19.92-4.3 19.58-4.93 19.24-5.32 18.7-5.71 18.16-5.96 17.43-6.2 16.7-6.35 15.97L-6.35 15.97Q-5.81 14.89-5.32 14.11-4.83 13.33-4.59 12.11L-4.59 12.11Q-3.71 11.47-3.3 10.57-2.88 9.67-2.83 8.59L-2.83 8.59Q-2.29 8.25-2.08 7.69-1.86 7.13-1.81 6.49L-1.81 6.49Q-2.98 6.4-4.27 6.3-5.57 6.2-6.69 5.81L-6.69 5.81Q-6.69 5.71-6.67 5.62-6.64 5.52-6.64 5.42L-6.64 5.42Q-6.64 4.79-6.93 4.27-7.23 3.76-7.23 3.17L-7.23 3.17-7.23 2.78Q-6.84 2.39-6.52 1.98-6.2 1.56-5.86 1.22-5.52 0.88-5.08 0.66-4.64 0.44-3.96 0.44L-3.96 0.44Q-3.03 0.44-2.15 0.56-1.27 0.68-0.34 0.68L-0.34 0.68Q0.29 0.68 0.98 0.54L0.98 0.54Q2.05-1.66 2.88-3.93 3.71-6.2 4.15-8.54L4.15-8.54Q4.49-9.03 4.79-9.69 5.08-10.35 5.25-11.08 5.42-11.82 5.49-12.52 5.57-13.23 5.57-13.82L5.57-13.82Q6.1-14.45 6.32-15.38 6.54-16.31 6.69-17.31 6.84-18.31 7.01-19.29 7.18-20.26 7.67-21L7.67-21 7.67-21.44Q7.71-22.17 7.52-22.75L7.52-22.75Q7.76-22.85 7.81-23.19 7.86-23.54 8.01-23.78L8.01-23.78Q8.06-26.03 8.5-28.2 8.94-30.37 9.23-32.57L9.23-32.57 9.23-32.71Q9.23-32.96 9.06-32.98 8.89-33.01 8.89-33.25L8.89-33.25Q8.89-33.69 9.01-34.42 9.13-35.16 9.18-35.64L9.18-35.64Q9.47-38.28 9.47-40.87L9.47-40.87Q9.47-43.07 9.33-45.21 9.18-47.36 9.03-49.56L9.03-49.56 9.42-50.15Q9.62-50.44 9.77-50.73L9.77-50.73Q10.25-50.93 10.57-51.15 10.89-51.37 11.43-51.37L11.43-51.37Q11.57-51.37 11.67-51.34 11.77-51.32 11.87-51.32L11.87-51.32Q12.16-51.12 12.33-50.78 12.5-50.44 12.67-50.15 12.84-49.85 13.13-49.66 13.43-49.46 13.96-49.56L13.96-49.56Q14.21-48.19 15.33-48.14L15.33-48.14Q15.58-47.46 15.94-46.78 16.31-46.09 16.94-45.7L16.94-45.7Q16.89-45.51 16.89-45.17L16.89-45.17Q16.89-44.48 17.21-43.85 17.53-43.21 18.02-42.68L18.02-42.68 18.02-42.58Q18.02-42.04 17.63-41.85L17.63-41.85Q18.07-41.36 18.26-40.67 18.46-39.99 18.6-39.28 18.75-38.57 18.97-37.94 19.19-37.3 19.73-36.96L19.73-36.96 19.73-36.82Q19.73-36.57 19.56-36.52 19.38-36.47 19.38-36.23L19.38-36.23Q20.26-34.62 20.61-32.71 20.95-30.81 21.48-29.05L21.48-29.05Q21.68-28.86 21.95-28.81 22.22-28.76 22.36-28.56L22.36-28.56Q22.07-28.37 22.07-27.88 22.07-27.39 21.83-27.15L21.83-27.15Q22.22-26.81 22.19-26.15 22.17-25.49 22.56-25.2L22.56-25.2 22.56-25Q22.56-24.8 22.46-24.68 22.36-24.56 22.36-24.37L22.36-24.37 22.36-24.17Q22.75-22.46 22.97-20.75 23.19-19.04 23.44-17.33 23.68-15.63 23.97-13.94 24.27-12.26 24.8-10.64L24.8-10.64Q24.85-10.6 24.85-10.5L24.85-10.5Q24.85-10.25 24.66-10.23 24.46-10.21 24.46-9.96L24.46-9.96Q24.46-9.72 24.63-9.4 24.8-9.08 25-8.89L25-8.89Q24.95-8.69 24.95-8.3L24.95-8.3Q24.95-7.57 25.22-6.88 25.49-6.2 25.81-5.54 26.12-4.88 26.37-4.15 26.61-3.42 26.56-2.59L26.56-2.59Q26.86-2.15 27.32-1.86 27.78-1.56 28.27-1.32 28.76-1.07 29.17-0.73 29.59-0.39 29.74 0.2L29.74 0.2Q29.35 0.54 29.2 1.05 29.05 1.56 28.66 1.95L28.66 1.95Q29 2.78 29.47 3.49 29.93 4.2 30.42 4.88L30.42 4.88 31.45 6.25Q31.98 6.93 32.37 7.71L32.37 7.71Q32.91 7.71 33.15 8.01 33.4 8.3 33.94 8.25L33.94 8.25Q34.13 8.64 34.08 9.13L34.08 9.13Q35.06 8.79 36.04 8.79L36.04 8.79Q36.57 8.79 37.04 8.84 37.5 8.89 37.99 8.89L37.99 8.89Q38.57 8.89 39.01 8.74L39.01 8.74Q39.21 9.03 39.31 9.4 39.4 9.77 39.45 10.16L39.45 10.16 39.6 10.94Q39.7 11.33 39.89 11.62ZM21.48-1.9L21.48-1.9Q20.8-5.27 20.09-8.62 19.38-11.96 18.85-15.38L18.85-15.38Q18.55-17.19 18.41-18.99 18.26-20.8 18.04-22.58 17.82-24.37 17.46-26.12 17.09-27.88 16.41-29.59L16.41-29.59 16.41-29.69Q16.41-29.83 16.5-29.93 16.6-30.03 16.6-30.27L16.6-30.27 16.6-30.47Q15.97-30.91 15.72-31.71 15.48-32.52 15.31-33.42 15.14-34.33 14.87-35.18 14.6-36.04 13.96-36.62L13.96-36.62Q13.72-33.79 13.45-30.98 13.18-28.17 13.09-25.34L13.09-25.34Q12.6-25.05 12.45-24.37 12.3-23.68 12.3-23.14L12.3-23.14Q12.3-22.75 12.35-22.34 12.4-21.92 12.55-21.48L12.55-21.48Q11.67-19.29 11.28-16.97 10.89-14.65 10.4-12.35L10.4-12.35Q10.35-12.21 10.23-11.69 10.11-11.18 9.96-10.64 9.81-10.11 9.72-9.69 9.62-9.28 9.62-9.23L9.62-9.23Q9.57-8.89 9.59-8.54 9.62-8.2 9.62-7.86L9.62-7.86 8.89-7.13Q8.69-5.27 8.18-3.54 7.67-1.81 7.13 0L7.13 0Q7.47 0.05 7.79 0.07 8.11 0.1 8.45 0.1L8.45 0.1Q10.01 0.1 11.6-0.12 13.18-0.34 14.75-0.54L14.75-0.54Q15.28-0.63 15.87-0.71 16.46-0.78 16.99-0.78L16.99-0.78Q17.24-0.83 17.58-0.81 17.92-0.78 18.16-0.83L18.16-0.83Q18.55-0.93 18.68-1.15 18.8-1.37 19.19-1.42L19.19-1.42Q19.48-1.27 19.87-1.27L19.87-1.27Q20.31-1.27 20.7-1.46 21.09-1.66 21.48-1.9ZM95.21-8.5L95.21-8.5Q95.11-7.76 94.7-7.37 94.28-6.98 93.75-6.64L93.75-6.64Q93.5-6.69 93.28-6.71 93.06-6.74 92.82-6.74L92.82-6.74Q91.31-6.79 89.96-6.35 88.62-5.91 87.2-5.71L87.2-5.71Q86.72-5.62 86.3-5.64 85.89-5.66 85.45-5.57L85.45-5.57Q83.88-5.32 82.13-5.18 80.37-5.03 78.61-4.81 76.85-4.59 75.17-4.27 73.48-3.96 72.02-3.37L72.02-3.37Q71.87-3.47 71.73-3.59 71.58-3.71 71.38-3.71L71.38-3.71Q70.9-3.71 70.46-3.56 70.02-3.42 69.58-3.47L69.58-3.47Q69.09-3.17 68.53-3.05 67.97-2.93 67.4-2.86 66.84-2.78 66.31-2.64 65.77-2.49 65.28-2.1L65.28-2.1Q64.89-2.29 64.33-2.32 63.77-2.34 63.57-2.69L63.57-2.69Q62.45-2.15 61.2-2 59.96-1.86 58.69-1.9L58.69-1.9Q57.86-1.95 56.78-2.15 55.71-2.34 54.64-2.71 53.56-3.08 52.63-3.59 51.71-4.1 51.22-4.83L51.22-4.83Q50.88-5.32 50.73-5.91 50.58-6.49 50.05-6.79L50.05-6.79Q50.19-7.91 50.39-8.98 50.58-10.06 50.78-11.18L50.78-11.18Q51.76-12.01 52.63-12.94 53.51-13.87 54.29-14.89L54.29-14.89Q55.22-15.33 56.03-15.97 56.83-16.6 57.64-17.26 58.44-17.92 59.25-18.55 60.06-19.19 60.98-19.68L60.98-19.68Q61.13-20.02 61.4-20.24 61.67-20.46 61.96-20.68 62.25-20.9 62.5-21.17 62.74-21.44 62.84-21.83L62.84-21.83Q64.55-22.85 65.82-24.41 67.09-25.98 67.48-27.93L67.48-27.93Q66.65-28.61 65.6-28.83 64.55-29.05 63.43-29.15L63.43-29.15Q62.45-29.2 61.4-29.15 60.35-29.1 59.27-29.2L59.27-29.2Q58.2-28.86 57.05-28.76 55.91-28.66 54.78-28.59 53.66-28.52 52.56-28.3 51.46-28.08 50.44-27.49L50.44-27.49Q50.24-27.49 50.07-27.54 49.9-27.59 49.7-27.59L49.7-27.59Q48.14-27.64 46.77-26.98 45.41-26.32 44.09-25.68L44.09-25.68Q43.99-25.49 43.99-25.39L43.99-25.39Q43.99-25.1 44.11-24.83 44.24-24.56 44.24-24.27L44.24-24.27Q44.19-24.22 44.19-24.17 44.19-24.12 44.14-24.07L44.14-24.07Q44.09-23.83 44.02-23.63 43.94-23.44 43.85-23.19L43.85-23.19Q43.31-21.63 43.26-20.12L43.26-20.12Q43.21-18.85 43.26-17.63 43.31-16.41 43.26-15.14L43.26-15.14Q43.16-13.57 42.77-12.21L42.77-12.21Q43.02-11.04 43.21-9.74 43.41-8.45 43.7-7.18 43.99-5.91 44.41-4.71 44.82-3.52 45.51-2.44L45.51-2.44Q45.46-2.34 45.55-2.29 45.65-2.25 45.75-2.25L45.75-2.25 46.14-2.25Q46.38-2.25 46.34-2.05L46.34-2.05Q46.43-1.9 46.48-1.78 46.53-1.66 46.68-1.56L46.68-1.56Q46.77-1.42 46.68-1.17L46.68-1.17Q46.63-0.2 46.19 0.63 45.75 1.46 45.65 2.44L45.65 2.44Q45.07 2.59 44.58 2.59L44.58 2.59Q43.75 2.54 43.11 2.12 42.48 1.71 41.94 1.12 41.4 0.54 40.92-0.07 40.43-0.68 39.84-1.12L39.84-1.12Q39.5-2.49 39.18-4.15 38.86-5.81 38.13-6.98L38.13-6.98Q38.33-7.42 38.33-8.06L38.33-8.06Q38.38-9.03 38.16-9.99 37.94-10.94 38.03-11.91L38.03-11.91Q38.03-12.45 38.16-12.99 38.28-13.53 38.33-14.06L38.33-14.06Q38.38-14.89 38.16-15.67 37.94-16.46 37.99-17.29L37.99-17.29Q38.03-17.68 38.16-18.04 38.28-18.41 38.52-18.7L38.52-18.7Q38.28-19.29 38.38-19.82L38.38-19.82Q38.43-20.65 38.57-21.39 38.72-22.12 38.77-22.85L38.77-22.85Q38.77-23.24 38.72-23.61 38.67-23.97 38.57-24.32L38.57-24.32 38.13-24.46Q37.84-24.46 37.57-24.32 37.3-24.17 37.11-23.97 36.91-23.78 36.77-23.66 36.62-23.54 36.47-23.54L36.47-23.54Q36.37-23.54 36.25-23.56 36.13-23.58 36.03-23.58L36.03-23.58Q35.94-23.58 35.67-23.39 35.4-23.19 35.03-22.97 34.67-22.75 34.32-22.53 33.98-22.31 33.79-22.27L33.79-22.27Q33.25-22.36 32.93-22.63 32.61-22.9 32.35-23.17 32.08-23.44 31.78-23.66 31.49-23.88 31.05-23.83L31.05-23.83Q30.91-24.12 30.88-24.46 30.86-24.8 30.91-25.15L30.91-25.15 30.91-25.93Q31.25-26.56 31.81-26.98 32.37-27.39 33.01-27.69L33.01-27.69 34.27-28.27Q34.91-28.56 35.45-29L35.45-29 35.89-29Q36.77-28.96 37.42-29.35 38.08-29.74 38.67-30.25 39.26-30.76 39.87-31.3 40.48-31.84 41.21-32.13L41.21-32.13Q41.75-31.88 42.33-31.71 42.92-31.54 43.55-31.49L43.55-31.49Q44.19-31.49 44.87-31.69 45.55-31.88 45.94-32.42L45.94-32.42Q46.19-32.32 46.36-32.3 46.53-32.28 46.77-32.28L46.77-32.28Q47.51-32.23 48.24-32.5 48.97-32.76 49.66-33.15L49.66-33.15Q50.63-33.11 51.58-33.28 52.54-33.45 53.49-33.64 54.44-33.84 55.39-34.01 56.35-34.18 57.32-34.13L57.32-34.13Q58.93-34.08 60.5-34.42 62.06-34.77 63.67-34.67L63.67-34.67Q64.79-34.62 65.89-34.5 66.99-34.38 68.11-34.42L68.11-34.42Q68.75-34.13 69.26-33.91 69.77-33.69 70.55-33.79L70.55-33.79Q72.12-32.47 73.39-30.71L73.39-30.71 73.39-29.88Q73.34-28.76 73-27.69 72.65-26.61 72.19-25.56 71.73-24.51 71.19-23.51 70.65-22.51 70.16-21.53L70.16-21.53Q66.99-18.65 63.82-15.82 60.64-12.99 57.27-10.35L57.27-10.35Q57.18-9.86 57-9.47 56.83-9.08 56.78-8.64L56.78-8.64Q56.78-8.4 56.83-8.25L56.83-8.25Q57.18-8.15 57.44-7.89 57.71-7.62 57.61-7.18L57.61-7.18 58.05-7.18Q58.3-7.18 58.3-6.98L58.3-6.98 59.08-6.93Q60.94-6.84 62.79-7.03 64.65-7.23 66.53-7.47 68.41-7.71 70.26-7.93 72.12-8.15 73.97-8.2L73.97-8.2Q74.41-8.35 74.9-8.45 75.39-8.54 75.78-8.84L75.78-8.84 75.93-8.84Q76.27-8.84 76.44-8.64 76.61-8.45 76.95-8.4L76.95-8.4Q77.19-8.4 77.46-8.5 77.73-8.59 78.02-8.64L78.02-8.64Q78.71-8.84 79.47-8.89 80.22-8.94 80.95-9.03L80.95-9.03Q83.79-9.28 86.57-9.35 89.35-9.42 92.14-10.06L92.14-10.06Q92.38-9.72 92.82-9.59 93.26-9.47 93.75-9.35 94.24-9.23 94.65-9.08 95.07-8.94 95.21-8.5ZM91.89-6.69L91.89-6.69Q91.65-6.3 91.3-5.98 90.96-5.66 90.67-5.32L90.67-5.32Q90.33-5.18 89.91-5.18 89.5-5.18 89.13-5.2 88.76-5.22 88.45-5.2 88.13-5.18 87.93-4.98L87.93-4.98Q87.54-5.08 87.35-5.35 87.15-5.62 86.66-5.66L86.66-5.66Q86.47-5.71 86.27-5.66L86.27-5.66Q85.54-6.49 84.93-7.42 84.32-8.35 83.78-9.18L83.78-9.18Q83.74-10.99 83.49-12.84L83.49-12.84Q83.44-13.28 83.34-13.72 83.25-14.16 83.2-14.55L83.2-14.55Q83.2-15.04 83.27-15.5 83.34-15.97 83.39-16.36L83.39-16.36Q83.59-17.77 83.83-19.14 84.08-20.51 84.27-21.92L84.27-21.92Q84.47-23.19 84.47-24.58 84.47-25.98 84.03-27.2L84.03-27.2 83.98-27.44Q84.08-27.83 84.2-28.1 84.32-28.37 84.37-28.71L84.37-28.71Q84.47-29.25 84.13-29.49L84.13-29.49Q84.27-29.88 84.61-30 84.96-30.13 85-30.57L85-30.57Q85.05-30.76 85-30.96L85-30.96Q85.4-31.1 85.81-31.23 86.23-31.35 86.62-31.25L86.62-31.25Q87.25-31.15 87.74-30.83 88.23-30.52 88.67-30.13L88.67-30.13Q89.45-27.78 89.3-25.17 89.16-22.56 88.81-19.92 88.47-17.29 88.37-14.77 88.28-12.26 89.16-10.11L89.16-10.11 89.25-10.06Q89.5-10.01 89.64-10.23 89.79-10.45 90.03-10.4L90.03-10.4Q90.23-10.3 90.28-10.3L90.28-10.3Q90.47-9.33 90.91-8.45 91.35-7.57 91.89-6.69ZM127.43-31.05L127.43-31.05 127.43-30.86Q127.09-30.76 127.09-30.37L127.09-30.37Q126.56-30.13 125.97-30 125.38-29.88 124.85-29.64L124.85-29.64Q124.31-29.69 123.75-29.71 123.19-29.74 122.65-29.74L122.65-29.74Q121.18-29.74 119.72-29.64 118.25-29.54 116.79-29.64L116.79-29.64Q116.11-29.25 115.3-29.03 114.49-28.81 113.76-28.81L113.76-28.81Q113.18-28.81 112.74-28.96L112.74-28.96Q111.56-28.37 110.17-27.98 108.78-27.59 107.37-27.22 105.95-26.86 104.66-26.39 103.36-25.93 102.39-25.1L102.39-25.1Q102.29-24.41 102.24-23.75 102.19-23.1 102.19-22.46L102.19-22.46Q102.19-21.78 102.26-21.19 102.34-20.61 102.58-20.02L102.58-20.02Q102.82-19.92 103.14-19.87 103.46-19.82 103.7-19.82L103.7-19.82Q103.95-19.82 104.19-19.9 104.44-19.97 104.53-20.21L104.53-20.21Q105.27-20.31 106-20.29 106.73-20.26 107.46-20.26L107.46-20.26Q108.2-20.26 108.9-20.31 109.61-20.36 110.3-20.56L110.3-20.56Q111.08-20.75 111.83-20.8 112.59-20.85 113.32-20.9 114.06-20.95 114.84-21.07 115.62-21.19 116.45-21.58L116.45-21.58Q117.08-21.34 117.74-21.34 118.4-21.34 119.04-21.24L119.04-21.24Q119.38-21 119.6-20.7 119.82-20.41 119.82-20.02L119.82-20.02Q119.82-19.34 119.33-18.65 118.84-17.97 118.55-17.38L118.55-17.38 118.01-17.38Q116.84-17.38 115.74-17.07 114.64-16.75 113.54-16.33 112.44-15.92 111.35-15.6 110.25-15.28 109.07-15.28L109.07-15.28Q108.88-15.28 108.85-15.06 108.83-14.84 108.73-14.75L108.73-14.75Q108.49-14.79 108-14.79L108-14.79Q106.88-14.79 105.85-14.55 104.83-14.31 103.75-14.31L103.75-14.31Q103.46-14.31 103.17-14.33 102.87-14.36 102.58-14.4L102.58-14.4Q102.34-14.01 101.95-13.89 101.56-13.77 101.21-13.48L101.21-13.48Q101.07-13.04 101.04-12.4 101.02-11.77 100.99-11.11 100.97-10.45 100.87-9.86 100.77-9.28 100.48-8.94L100.48-8.94Q100.53-8.69 100.87-8.76 101.21-8.84 101.21-8.45L101.21-8.45Q101.21-8.01 101.12-7.52 101.02-7.03 101.02-6.54L101.02-6.54Q101.02-5.62 101.24-4.52 101.46-3.42 101.92-2.49 102.39-1.56 103.17-0.95 103.95-0.34 105.12-0.34L105.12-0.34Q105.9-0.34 106.58-0.63 107.27-0.93 107.71-1.61L107.71-1.61 107.95-1.66Q108.15-1.66 108.32-1.61 108.49-1.56 108.68-1.56L108.68-1.56Q108.98-1.56 109.44-1.93 109.9-2.29 110.47-2.78 111.03-3.27 111.61-3.74 112.2-4.2 112.74-4.39L112.74-4.39Q113.08-5.08 113.4-5.76 113.71-6.45 114.35-6.84L114.35-6.84 114.35-8.25Q114.84-8.79 115.4-9.23 115.96-9.67 116.25-10.35L116.25-10.35Q116.5-10.25 116.72-10.21 116.94-10.16 117.18-10.16L117.18-10.16Q117.42-10.16 117.69-10.21 117.96-10.25 118.21-10.35L118.21-10.35Q118.6-9.81 118.82-9.16 119.04-8.5 119.38-7.91L119.38-7.91Q118.94-7.03 118.35-5.81 117.77-4.59 117.08-3.37 116.4-2.15 115.64-1.05 114.89 0.05 114.15 0.63L114.15 0.63Q114.01 0.78 113.52 0.98L113.52 0.98Q112.98 1.37 112.54 1.73 112.1 2.1 111.71 2.59L111.71 2.59Q110.3 3.03 109 3.76 107.71 4.49 106.44 5.18L106.44 5.18Q105.85 5.03 105.17 5.03L105.17 5.03Q104.58 5.03 104 5.1 103.41 5.18 102.73 5.18L102.73 5.18Q102.53 4.93 102.17 4.86 101.8 4.79 101.9 4.35L101.9 4.35Q100.24 4.25 99.21 3.44 98.19 2.64 97.48 1.46 96.77 0.29 96.33-1.07 95.89-2.44 95.4-3.71L95.4-3.71 95.4-3.86Q95.4-4.1 95.6-4.15 95.79-4.2 95.79-4.44L95.79-4.44Q95.79-4.54 95.74-4.59L95.74-4.59Q95.6-5.13 95.5-5.52 95.4-5.91 95.4-6.45L95.4-6.45Q95.4-7.23 95.5-7.98 95.6-8.74 95.6-9.52L95.6-9.52Q95.6-10.3 95.4-10.89L95.4-10.89Q95.6-11.13 95.72-11.55 95.84-11.96 95.89-12.4 95.94-12.84 95.96-13.28 95.99-13.72 96.09-14.06L96.09-14.06Q95.89-14.6 95.74-15.01 95.6-15.43 95.6-16.02L95.6-16.02 95.6-16.36Q96.09-17.19 96.43-18.07 96.77-18.95 97.16-19.87L97.16-19.87 97.16-20.02Q97.16-21.44 97.06-22.85 96.97-24.27 96.97-25.68L96.97-25.68 96.97-26.61Q96.97-27.1 97.01-27.54L97.01-27.54Q97.4-27.73 97.6-28.08 97.8-28.42 98.19-28.61L98.19-28.61 99.8-28.61 100.09-29.1Q100.24-29.35 100.29-29.64L100.29-29.64Q100.82-29.79 101.34-30.05 101.85-30.32 102.29-30.62L102.29-30.62Q102.97-31.01 103.53-31.32 104.09-31.64 104.66-31.86 105.22-32.08 105.85-32.23 106.49-32.37 107.32-32.47L107.32-32.47Q107.71-32.47 107.83-32.62 107.95-32.76 108.2-32.96L108.2-32.96Q108.78-32.86 109.37-32.79 109.95-32.71 110.54-32.71L110.54-32.71Q111.71-32.71 112.74-33.15L112.74-33.15Q114.2-33.15 115.64-33.2 117.08-33.25 118.55-33.25L118.55-33.25Q119.82-33.25 121.09-33.15 122.36-33.06 123.58-32.81L123.58-32.81Q124.02-32.96 124.55-32.96L124.55-32.96Q125.14-32.96 125.75-32.84 126.36-32.71 126.95-32.81L126.95-32.81Q126.99-32.28 127.21-31.91 127.43-31.54 127.43-31.05ZM150.92-6.15L150.92-6.15Q150.92-5.32 150.5-4.71 150.09-4.1 150.19-3.22L150.19-3.22Q149.5-2.83 149.06-2.2 148.62-1.56 148.23-0.88L148.23-0.88Q145.01 1.22 141.32 2.51 137.64 3.81 133.73 3.81L133.73 3.81Q133.49 3.81 133.29 3.59 133.1 3.37 132.9 3.13 132.7 2.88 132.49 2.66 132.27 2.44 131.97 2.44L131.97 2.44Q131.63 2.44 131.44 2.59L131.44 2.59Q131.44 2.49 131.46 2.42 131.48 2.34 131.48 2.25L131.48 2.25Q131.48 1.66 131.34 1.05 131.19 0.44 131.19-0.15L131.19-0.15Q131.19-0.83 131.44-1.27L131.44-1.27 132.02-1.27Q132.51-1.27 132.97-1.34 133.44-1.42 133.97-1.42L133.97-1.42Q134.51-1.42 134.95-1.12L134.95-1.12Q137.64-1.22 140.05-2.12 142.47-3.03 144.96-3.91L144.96-3.91Q145.35-4.44 145.42-5.1 145.5-5.76 145.79-6.35L145.79-6.35Q144.52-7.42 143.23-8.03 141.93-8.64 140.22-8.45L140.22-8.45Q139.2-9.08 138.05-9.18 136.9-9.28 135.73-9.47L135.73-9.47Q135.44-9.52 135.12-9.59 134.8-9.67 134.46-9.67L134.46-9.67Q134.22-9.67 134-9.55 133.78-9.42 133.88-9.18L133.88-9.18Q133.63-9.57 133.22-9.64 132.8-9.72 132.51-10.01L132.51-10.01Q130.95-10.11 129.78-10.57 128.6-11.04 127.19-11.62L127.19-11.62Q126.8-11.77 126.43-11.84 126.06-11.91 125.72-12.11L125.72-12.11Q124.84-12.55 124.31-13.28 123.77-14.01 123.45-14.92 123.13-15.82 122.99-16.8 122.84-17.77 122.7-18.6L122.7-18.6Q123.13-19.38 123.5-20.21 123.87-21.04 124.11-21.97L124.11-21.97Q124.4-22.12 124.7-22.22 124.99-22.31 125.33-22.46L125.33-22.46Q125.28-22.56 125.28-22.71L125.28-22.71Q125.28-22.95 125.45-23.19 125.62-23.44 125.53-23.68L125.53-23.68Q126.6-24.66 127.6-25.71 128.6-26.76 129.34-28.03L129.34-28.03Q130.07-28.27 130.51-28.76 130.95-29.25 131.39-29.76 131.83-30.27 132.36-30.69 132.9-31.1 133.73-31.2L133.73-31.2Q133.93-31.54 134.27-31.76 134.61-31.98 134.95-32.18 135.29-32.37 135.59-32.62 135.88-32.86 136.03-33.3L136.03-33.3Q136.81-33.3 137.47-33.59 138.12-33.89 138.76-34.23 139.39-34.57 140.05-34.86 140.71-35.16 141.49-35.16L141.49-35.16Q141.69-35.16 141.88-35.13 142.08-35.11 142.32-35.06L142.32-35.06Q142.67-34.72 142.79-34.25 142.91-33.79 142.96-33.25 143.01-32.71 143.03-32.18 143.06-31.64 143.2-31.2L143.2-31.2Q142.76-30.37 142.25-29.54 141.74-28.71 140.91-28.27L140.91-28.27 140.81-28.27Q140.47-28.22 140.18-28.42 139.88-28.61 139.49-28.61L139.49-28.61Q139.25-28.61 139.1-28.47L139.1-28.47 138.86-28.22Q138.76-28.13 138.59-28.03 138.42-27.93 138.12-28.03L138.12-28.03Q137.44-27.78 137.59-27.2L137.59-27.2Q136.66-27.1 136.03-26.64 135.39-26.17 134.85-25.61 134.32-25.05 133.78-24.58 133.24-24.12 132.51-24.07L132.51-24.07Q131.68-22.61 130.48-21.48 129.29-20.36 128.51-18.95L128.51-18.95Q128.65-18.55 128.7-18.12 128.75-17.68 128.85-17.19L128.85-17.19Q129.29-16.6 129.9-16.16 130.51-15.72 131.09-15.28L131.09-15.28 131.24-15.28Q132.22-15.28 133.05-14.92 133.88-14.55 134.8-14.55L134.8-14.55Q135.29-14.55 135.63-14.75L135.63-14.75Q136.9-14.45 138.15-14.26 139.39-14.06 140.66-13.96L140.66-13.96Q141.3-13.87 141.96-13.87 142.62-13.87 143.2-13.72L143.2-13.72Q143.74-13.57 144.28-13.35 144.81-13.13 145.35-12.89L145.35-12.89Q146.47-12.4 147.48-11.82 148.48-11.23 149.26-10.42 150.04-9.62 150.48-8.57 150.92-7.52 150.92-6.15Z" opacity="1" transform="matrix(1,0,0,1,0,0)" fill="#ff0000" class="wordmark-text-0" data-fill-palette-color="primary" id="text-0"></path></svg></g></svg></g></svg></g></svg></g><g></g></svg></g><defs></defs></svg><rect width="395.52" height="178.28317381907993" fill="none" stroke="none" visibility="hidden"></rect></g></svg></g></svg>